<mxfile host="app.diagrams.net" modified="2024-06-21T07:54:45.914Z" agent="Mozilla/5.0 (X11; Ubuntu; Linux x86_64; rv:126.0) Gecko/20100101 Firefox/126.0" etag="YByAeCgNYKyTwzRkeuNT" version="24.6.0" type="device">
  <diagram id="C5RBs43oDa-KdzZeNtuy" name="Page-1">
    <mxGraphModel dx="1667" dy="936" grid="1" gridSize="10" guides="1" tooltips="1" connect="1" arrows="1" fold="1" page="1" pageScale="1" pageWidth="827" pageHeight="1169" math="0" shadow="0">
      <root>
        <mxCell id="WIyWlLk6GJQsqaUBKTNV-0" />
        <mxCell id="WIyWlLk6GJQsqaUBKTNV-1" parent="WIyWlLk6GJQsqaUBKTNV-0" />
        <mxCell id="zkfFHV4jXpPFQw0GAbJ--0" value="Pays" style="swimlane;fontStyle=2;align=center;verticalAlign=top;childLayout=stackLayout;horizontal=1;startSize=26;horizontalStack=0;resizeParent=1;resizeLast=0;collapsible=1;marginBottom=0;rounded=0;shadow=0;strokeWidth=1;" parent="WIyWlLk6GJQsqaUBKTNV-1" vertex="1">
          <mxGeometry x="770" y="160" width="297" height="190" as="geometry">
            <mxRectangle x="230" y="140" width="160" height="26" as="alternateBounds" />
          </mxGeometry>
        </mxCell>
        <mxCell id="zkfFHV4jXpPFQw0GAbJ--1" value="- nomPays : String&#xa;- scoreTotal : int&#xa;- medailles : Map&lt;String, Integer&gt;" style="text;align=left;verticalAlign=top;spacingLeft=4;spacingRight=4;overflow=hidden;rotatable=0;points=[[0,0.5],[1,0.5]];portConstraint=eastwest;" parent="zkfFHV4jXpPFQw0GAbJ--0" vertex="1">
          <mxGeometry y="26" width="297" height="54" as="geometry" />
        </mxCell>
        <mxCell id="zkfFHV4jXpPFQw0GAbJ--4" value="" style="line;html=1;strokeWidth=1;align=left;verticalAlign=middle;spacingTop=-1;spacingLeft=3;spacingRight=3;rotatable=0;labelPosition=right;points=[];portConstraint=eastwest;" parent="zkfFHV4jXpPFQw0GAbJ--0" vertex="1">
          <mxGeometry y="80" width="297" height="8" as="geometry" />
        </mxCell>
        <mxCell id="zkfFHV4jXpPFQw0GAbJ--5" value="+ Pays(nom : String)&#xa;+ getScoreTotal() : int&#xa;+ getNomPays() : String&#xa;+ ajouterMedaille(typeMedaille : String) : void&#xa;+ getMedailles() : Map&lt;String, Integer&gt;&#xa;+ toString() : String&#xa;&#xa;&#xa;" style="text;align=left;verticalAlign=top;spacingLeft=4;spacingRight=4;overflow=hidden;rotatable=0;points=[[0,0.5],[1,0.5]];portConstraint=eastwest;" parent="zkfFHV4jXpPFQw0GAbJ--0" vertex="1">
          <mxGeometry y="88" width="297" height="102" as="geometry" />
        </mxCell>
        <mxCell id="zkfFHV4jXpPFQw0GAbJ--6" value="Athlete" style="swimlane;fontStyle=0;align=center;verticalAlign=top;childLayout=stackLayout;horizontal=1;startSize=26;horizontalStack=0;resizeParent=1;resizeLast=0;collapsible=1;marginBottom=0;rounded=0;shadow=0;strokeWidth=1;" parent="WIyWlLk6GJQsqaUBKTNV-1" vertex="1">
          <mxGeometry x="9" y="500" width="290" height="400" as="geometry">
            <mxRectangle x="130" y="380" width="160" height="26" as="alternateBounds" />
          </mxGeometry>
        </mxCell>
        <mxCell id="zkfFHV4jXpPFQw0GAbJ--7" value="- nom : String&#xa;- prenom : String&#xa;- sexe : Epreuve.Sexe&#xa;- force : int&#xa;- endurance : int&#xa;- agilite : int&#xa;- score : int&#xa;&#xa;&#xa;" style="text;align=left;verticalAlign=top;spacingLeft=4;spacingRight=4;overflow=hidden;rotatable=0;points=[[0,0.5],[1,0.5]];portConstraint=eastwest;" parent="zkfFHV4jXpPFQw0GAbJ--6" vertex="1">
          <mxGeometry y="26" width="290" height="114" as="geometry" />
        </mxCell>
        <mxCell id="zkfFHV4jXpPFQw0GAbJ--9" value="" style="line;html=1;strokeWidth=1;align=left;verticalAlign=middle;spacingTop=-1;spacingLeft=3;spacingRight=3;rotatable=0;labelPosition=right;points=[];portConstraint=eastwest;" parent="zkfFHV4jXpPFQw0GAbJ--6" vertex="1">
          <mxGeometry y="140" width="290" height="8" as="geometry" />
        </mxCell>
        <mxCell id="zkfFHV4jXpPFQw0GAbJ--11" value="+ Athlète(nom : String, prenom : String, sexe : char,    &#xa;               force : int, endurance : int, agilite : int) &#xa;+ Participer(epreuve :EpreuveIndividuelle) : boolean &#xa;+ getNom() : String &#xa;+ getPrenom() : String &#xa;+ getSexe () : Epreuve.Sexe &#xa;+ getForce() : int &#xa;+ getEndurance() : int &#xa;+ getForce() : int &#xa;+ getAgilite() : int &#xa;+ setNom(String nom) : void &#xa;+ setScore(int score) : void &#xa;+ addScore(int score) : void &#xa;+ setPays(Pays paie) : void &#xa;+ getPays() : Pays&#xa;+ compareTo(Athlète a) : int &#xa;+ toString() : String&#xa;&#xa;&#xa;&#xa;&#xa;&#xa;&#xa;" style="text;align=left;verticalAlign=top;spacingLeft=4;spacingRight=4;overflow=hidden;rotatable=0;points=[[0,0.5],[1,0.5]];portConstraint=eastwest;" parent="zkfFHV4jXpPFQw0GAbJ--6" vertex="1">
          <mxGeometry y="148" width="290" height="252" as="geometry" />
        </mxCell>
        <mxCell id="zkfFHV4jXpPFQw0GAbJ--13" value="&lt;Interface&gt;&#xa;Participant&#xa;" style="swimlane;fontStyle=0;align=center;verticalAlign=top;childLayout=stackLayout;horizontal=1;startSize=40;horizontalStack=0;resizeParent=1;resizeLast=0;collapsible=1;marginBottom=0;rounded=0;shadow=0;strokeWidth=1;" parent="WIyWlLk6GJQsqaUBKTNV-1" vertex="1">
          <mxGeometry x="334" y="290" width="160" height="150" as="geometry">
            <mxRectangle x="340" y="380" width="170" height="26" as="alternateBounds" />
          </mxGeometry>
        </mxCell>
        <mxCell id="zkfFHV4jXpPFQw0GAbJ--15" value="" style="line;html=1;strokeWidth=1;align=left;verticalAlign=middle;spacingTop=-1;spacingLeft=3;spacingRight=3;rotatable=0;labelPosition=right;points=[];portConstraint=eastwest;" parent="zkfFHV4jXpPFQw0GAbJ--13" vertex="1">
          <mxGeometry y="40" width="160" height="8" as="geometry" />
        </mxCell>
        <mxCell id="qkjxew0rmpi3oUevCYHF-14" value="&lt;font style=&quot;padding: 0px; margin: 0px; vertical-align: inherit;&quot;&gt;&lt;font style=&quot;vertical-align: inherit;&quot;&gt;&lt;font style=&quot;vertical-align: inherit;&quot;&gt;&lt;font style=&quot;vertical-align: inherit;&quot;&gt;&lt;font style=&quot;vertical-align: inherit;&quot;&gt;&lt;font style=&quot;vertical-align: inherit;&quot;&gt;&lt;font style=&quot;vertical-align: inherit;&quot;&gt;&lt;font style=&quot;vertical-align: inherit;&quot;&gt;&lt;font style=&quot;vertical-align: inherit;&quot;&gt;&lt;font style=&quot;vertical-align: inherit;&quot;&gt;&lt;font style=&quot;vertical-align: inherit;&quot;&gt;&lt;font style=&quot;vertical-align: inherit;&quot;&gt;&lt;font style=&quot;vertical-align: inherit;&quot;&gt;&lt;font style=&quot;vertical-align: inherit;&quot;&gt;&lt;font style=&quot;vertical-align: inherit;&quot;&gt;&lt;font style=&quot;vertical-align: inherit;&quot;&gt;&lt;font style=&quot;vertical-align: inherit;&quot;&gt;&lt;font style=&quot;vertical-align: inherit;&quot;&gt;&lt;font style=&quot;vertical-align: inherit;&quot;&gt;+ getForce() : int&lt;/font&gt;&lt;/font&gt;&lt;/font&gt;&lt;/font&gt;&lt;/font&gt;&lt;/font&gt;&lt;/font&gt;&lt;/font&gt;&lt;/font&gt;&lt;/font&gt;&lt;/font&gt;&lt;/font&gt;&lt;/font&gt;&lt;/font&gt;&lt;/font&gt;&lt;/font&gt;&lt;/font&gt;&lt;/font&gt;&lt;/font&gt;&lt;div&gt;&lt;font style=&quot;padding: 0px; margin: 0px; vertical-align: inherit;&quot;&gt;&lt;font style=&quot;vertical-align: inherit;&quot;&gt;&lt;font style=&quot;vertical-align: inherit;&quot;&gt;&lt;font style=&quot;vertical-align: inherit;&quot;&gt;&lt;font style=&quot;vertical-align: inherit;&quot;&gt;&lt;font style=&quot;vertical-align: inherit;&quot;&gt;&lt;font style=&quot;vertical-align: inherit;&quot;&gt;&lt;font style=&quot;vertical-align: inherit;&quot;&gt;&lt;font style=&quot;vertical-align: inherit;&quot;&gt;&lt;font style=&quot;vertical-align: inherit;&quot;&gt;&lt;font style=&quot;vertical-align: inherit;&quot;&gt;&lt;font style=&quot;vertical-align: inherit;&quot;&gt;&lt;font style=&quot;vertical-align: inherit;&quot;&gt;+ getEndurance() : int&lt;/font&gt;&lt;/font&gt;&lt;/font&gt;&lt;/font&gt;&lt;/font&gt;&lt;/font&gt;&lt;/font&gt;&lt;/font&gt;&lt;/font&gt;&lt;/font&gt;&lt;/font&gt;&lt;/font&gt;&lt;/font&gt;&lt;br style=&quot;padding: 0px; margin: 0px;&quot;&gt;&lt;/div&gt;&lt;div&gt;&lt;font style=&quot;padding: 0px; margin: 0px; vertical-align: inherit;&quot;&gt;&lt;font style=&quot;vertical-align: inherit;&quot;&gt;&lt;font style=&quot;vertical-align: inherit;&quot;&gt;&lt;font style=&quot;vertical-align: inherit;&quot;&gt;&lt;font style=&quot;vertical-align: inherit;&quot;&gt;&lt;font style=&quot;vertical-align: inherit;&quot;&gt;&lt;font style=&quot;vertical-align: inherit;&quot;&gt;&lt;font style=&quot;vertical-align: inherit;&quot;&gt;&lt;font style=&quot;vertical-align: inherit;&quot;&gt;&lt;font style=&quot;vertical-align: inherit;&quot;&gt;&lt;font style=&quot;vertical-align: inherit;&quot;&gt;&lt;font style=&quot;vertical-align: inherit;&quot;&gt;&lt;font style=&quot;vertical-align: inherit;&quot;&gt;&lt;font style=&quot;vertical-align: inherit;&quot;&gt;&lt;font style=&quot;vertical-align: inherit;&quot;&gt;+ getAgilite() : int&lt;/font&gt;&lt;/font&gt;&lt;/font&gt;&lt;/font&gt;&lt;/font&gt;&lt;/font&gt;&lt;/font&gt;&lt;/font&gt;&lt;/font&gt;&lt;/font&gt;&lt;/font&gt;&lt;/font&gt;&lt;/font&gt;&lt;/font&gt;&lt;/font&gt;&lt;/div&gt;&lt;div&gt;&lt;font style=&quot;padding: 0px; margin: 0px; vertical-align: inherit;&quot;&gt;&lt;font style=&quot;vertical-align: inherit;&quot;&gt;&lt;font style=&quot;vertical-align: inherit;&quot;&gt;&lt;font style=&quot;vertical-align: inherit;&quot;&gt;&lt;font style=&quot;vertical-align: inherit;&quot;&gt;&lt;font style=&quot;vertical-align: inherit;&quot;&gt;&lt;font style=&quot;vertical-align: inherit;&quot;&gt;&lt;font style=&quot;vertical-align: inherit;&quot;&gt;&lt;font style=&quot;vertical-align: inherit;&quot;&gt;&lt;font style=&quot;vertical-align: inherit;&quot;&gt;&lt;font style=&quot;vertical-align: inherit;&quot;&gt;&lt;font style=&quot;vertical-align: inherit;&quot;&gt;&lt;font style=&quot;vertical-align: inherit;&quot;&gt;&lt;font style=&quot;vertical-align: inherit;&quot;&gt;&lt;font style=&quot;vertical-align: inherit;&quot;&gt;&lt;font style=&quot;vertical-align: inherit;&quot;&gt;&lt;font style=&quot;vertical-align: inherit;&quot;&gt;+ getPays() : Pays&lt;/font&gt;&lt;/font&gt;&lt;/font&gt;&lt;/font&gt;&lt;/font&gt;&lt;/font&gt;&lt;/font&gt;&lt;/font&gt;&lt;/font&gt;&lt;/font&gt;&lt;/font&gt;&lt;/font&gt;&lt;/font&gt;&lt;/font&gt;&lt;/font&gt;&lt;/font&gt;&lt;/font&gt;&lt;/div&gt;&lt;div&gt;&lt;font style=&quot;padding: 0px; margin: 0px; vertical-align: inherit;&quot;&gt;&lt;font style=&quot;vertical-align: inherit;&quot;&gt;&lt;font style=&quot;vertical-align: inherit;&quot;&gt;&lt;br&gt;&lt;/font&gt;&lt;/font&gt;&lt;/font&gt;&lt;/div&gt;" style="text;html=1;align=left;verticalAlign=middle;resizable=0;points=[];autosize=1;strokeColor=none;fillColor=none;" parent="zkfFHV4jXpPFQw0GAbJ--13" vertex="1">
          <mxGeometry y="48" width="160" height="90" as="geometry" />
        </mxCell>
        <mxCell id="c24FQxwEsqNwWbjkFZL--1" value="" style="endArrow=classic;html=1;rounded=0;exitX=1.016;exitY=0.093;exitDx=0;exitDy=0;entryX=0;entryY=0.5;entryDx=0;entryDy=0;exitPerimeter=0;" parent="WIyWlLk6GJQsqaUBKTNV-1" source="zkfFHV4jXpPFQw0GAbJ--13" target="zkfFHV4jXpPFQw0GAbJ--5" edge="1">
          <mxGeometry width="50" height="50" relative="1" as="geometry">
            <mxPoint x="413" y="420" as="sourcePoint" />
            <mxPoint x="410" y="262" as="targetPoint" />
          </mxGeometry>
        </mxCell>
        <mxCell id="c24FQxwEsqNwWbjkFZL--2" value="" style="endArrow=block;html=1;rounded=0;dashed=1;endFill=1;entryX=0.5;entryY=1;entryDx=0;entryDy=0;" parent="WIyWlLk6GJQsqaUBKTNV-1" target="zkfFHV4jXpPFQw0GAbJ--13" edge="1">
          <mxGeometry width="50" height="50" relative="1" as="geometry">
            <mxPoint x="299" y="512" as="sourcePoint" />
            <mxPoint x="349" y="462" as="targetPoint" />
          </mxGeometry>
        </mxCell>
        <mxCell id="c24FQxwEsqNwWbjkFZL--3" value="" style="endArrow=block;html=1;rounded=0;dashed=1;endFill=1;entryX=0.5;entryY=1;entryDx=0;entryDy=0;exitX=0.102;exitY=0.008;exitDx=0;exitDy=0;exitPerimeter=0;" parent="WIyWlLk6GJQsqaUBKTNV-1" source="c24FQxwEsqNwWbjkFZL--4" target="zkfFHV4jXpPFQw0GAbJ--13" edge="1">
          <mxGeometry width="50" height="50" relative="1" as="geometry">
            <mxPoint x="539" y="510" as="sourcePoint" />
            <mxPoint x="783" y="488" as="targetPoint" />
          </mxGeometry>
        </mxCell>
        <mxCell id="c24FQxwEsqNwWbjkFZL--4" value="Equipe" style="swimlane;fontStyle=0;align=center;verticalAlign=top;childLayout=stackLayout;horizontal=1;startSize=26;horizontalStack=0;resizeParent=1;resizeLast=0;collapsible=1;marginBottom=0;rounded=0;shadow=0;strokeWidth=1;" parent="WIyWlLk6GJQsqaUBKTNV-1" vertex="1">
          <mxGeometry x="467" y="480" width="360" height="350" as="geometry">
            <mxRectangle x="130" y="380" width="160" height="26" as="alternateBounds" />
          </mxGeometry>
        </mxCell>
        <mxCell id="c24FQxwEsqNwWbjkFZL--5" value="- nomEquipe : String&#xa;- score : int&#xa;- nationalite : Pays&#xa;- sexe : Epreuve.Sexe&#xa;&#xa;&#xa;&#xa;" style="text;align=left;verticalAlign=top;spacingLeft=4;spacingRight=4;overflow=hidden;rotatable=0;points=[[0,0.5],[1,0.5]];portConstraint=eastwest;" parent="c24FQxwEsqNwWbjkFZL--4" vertex="1">
          <mxGeometry y="26" width="360" height="64" as="geometry" />
        </mxCell>
        <mxCell id="c24FQxwEsqNwWbjkFZL--6" value="" style="line;html=1;strokeWidth=1;align=left;verticalAlign=middle;spacingTop=-1;spacingLeft=3;spacingRight=3;rotatable=0;labelPosition=right;points=[];portConstraint=eastwest;" parent="c24FQxwEsqNwWbjkFZL--4" vertex="1">
          <mxGeometry y="90" width="360" height="20" as="geometry" />
        </mxCell>
        <mxCell id="c24FQxwEsqNwWbjkFZL--7" value="+ Equipe(nomEquipe : pays, Pays : int, sexe : Epreuve.Sexe) &#xa;+ AjouterMembre(a : Athlete) : void &#xa;+ getPays() : Pays&#xa;+ getLesAthlètes() : List&lt;Athlete&gt;&#xa;+ getForce() : int&#xa;+ getEndurance() : int&#xa;+ getAgilite() : int&#xa;+ getNomEquipe() : String&#xa;+getNbAthlètes() : int&#xa;+ getNationalité() : Pays&#xa;+ getSexeEquipe() : Epreuve.Sexe&#xa;+ setScore() : void&#xa;+ compareTo() : int&#xa;+ removeAthlete(a : Athlete) : void&#xa;+ removeAthlete(index : int) : void&#xa;+ toString() : String&#xa;&#xa;&#xa;&#xa;&#xa;&#xa;&#xa;&#xa;&#xa;" style="text;align=left;verticalAlign=top;spacingLeft=4;spacingRight=4;overflow=hidden;rotatable=0;points=[[0,0.5],[1,0.5]];portConstraint=eastwest;" parent="c24FQxwEsqNwWbjkFZL--4" vertex="1">
          <mxGeometry y="110" width="360" height="240" as="geometry" />
        </mxCell>
        <mxCell id="1lEUYHELuhA4MckAKtJ3-2" value="" style="endArrow=classic;html=1;rounded=0;exitX=0.005;exitY=0.069;exitDx=0;exitDy=0;exitPerimeter=0;" parent="WIyWlLk6GJQsqaUBKTNV-1" source="c24FQxwEsqNwWbjkFZL--7" edge="1">
          <mxGeometry width="50" height="50" relative="1" as="geometry">
            <mxPoint x="459" y="660" as="sourcePoint" />
            <mxPoint x="300" y="603" as="targetPoint" />
          </mxGeometry>
        </mxCell>
        <mxCell id="1lEUYHELuhA4MckAKtJ3-4" value="- lesAthlètes" style="text;whiteSpace=wrap;html=1;" parent="WIyWlLk6GJQsqaUBKTNV-1" vertex="1">
          <mxGeometry x="309" y="569" width="71" height="30" as="geometry" />
        </mxCell>
        <mxCell id="1lEUYHELuhA4MckAKtJ3-5" value="EpreuveIndividuelle&#xa;" style="swimlane;fontStyle=0;align=center;verticalAlign=top;childLayout=stackLayout;horizontal=1;startSize=30;horizontalStack=0;resizeParent=1;resizeLast=0;collapsible=1;marginBottom=0;rounded=0;shadow=0;strokeWidth=1;" parent="WIyWlLk6GJQsqaUBKTNV-1" vertex="1">
          <mxGeometry x="90" y="982" width="310" height="98" as="geometry">
            <mxRectangle x="340" y="380" width="170" height="26" as="alternateBounds" />
          </mxGeometry>
        </mxCell>
        <mxCell id="1lEUYHELuhA4MckAKtJ3-6" value="" style="line;html=1;strokeWidth=1;align=left;verticalAlign=middle;spacingTop=-1;spacingLeft=3;spacingRight=3;rotatable=0;labelPosition=right;points=[];portConstraint=eastwest;" parent="1lEUYHELuhA4MckAKtJ3-5" vertex="1">
          <mxGeometry y="30" width="310" height="8" as="geometry" />
        </mxCell>
        <mxCell id="qkjxew0rmpi3oUevCYHF-0" value="&lt;div align=&quot;left&quot;&gt;+ EpreuveIndividuelle(sport : TypeSport, sexe : Sexe)&lt;/div&gt;&lt;div align=&quot;left&quot;&gt;&lt;font style=&quot;vertical-align: inherit;&quot;&gt;&lt;font style=&quot;vertical-align: inherit;&quot;&gt;+ participer(participant : Participant) : void&lt;/font&gt;&lt;/font&gt;&lt;/div&gt;" style="text;html=1;align=left;verticalAlign=middle;resizable=0;points=[];autosize=1;strokeColor=none;fillColor=none;" parent="1lEUYHELuhA4MckAKtJ3-5" vertex="1">
          <mxGeometry y="38" width="310" height="40" as="geometry" />
        </mxCell>
        <mxCell id="1lEUYHELuhA4MckAKtJ3-7" value="EpreuveCollective&#xa;" style="swimlane;fontStyle=0;align=center;verticalAlign=top;childLayout=stackLayout;horizontal=1;startSize=30;horizontalStack=0;resizeParent=1;resizeLast=0;collapsible=1;marginBottom=0;rounded=0;shadow=0;strokeWidth=1;" parent="WIyWlLk6GJQsqaUBKTNV-1" vertex="1">
          <mxGeometry x="439" y="960" width="280" height="120" as="geometry">
            <mxRectangle x="340" y="380" width="170" height="26" as="alternateBounds" />
          </mxGeometry>
        </mxCell>
        <mxCell id="1lEUYHELuhA4MckAKtJ3-8" value="" style="line;html=1;strokeWidth=1;align=left;verticalAlign=middle;spacingTop=-1;spacingLeft=3;spacingRight=3;rotatable=0;labelPosition=right;points=[];portConstraint=eastwest;" parent="1lEUYHELuhA4MckAKtJ3-7" vertex="1">
          <mxGeometry y="30" width="280" height="8" as="geometry" />
        </mxCell>
        <mxCell id="qkjxew0rmpi3oUevCYHF-1" value="+ EpreuveCollective(sport : TypeSport, sexe : Sexe)&#xa;+ participer(participant : Participant) : void&#xa;&#xa;" style="text;whiteSpace=wrap;" parent="1lEUYHELuhA4MckAKtJ3-7" vertex="1">
          <mxGeometry y="38" width="280" height="82" as="geometry" />
        </mxCell>
        <mxCell id="1lEUYHELuhA4MckAKtJ3-11" value="&lt;Abstract&gt;&#xa;Epreuve" style="swimlane;fontStyle=2;align=center;verticalAlign=top;childLayout=stackLayout;horizontal=1;startSize=40;horizontalStack=0;resizeParent=1;resizeLast=0;collapsible=1;marginBottom=0;rounded=0;shadow=0;strokeWidth=1;" parent="WIyWlLk6GJQsqaUBKTNV-1" vertex="1">
          <mxGeometry x="319" y="1130" width="261" height="340" as="geometry">
            <mxRectangle x="230" y="140" width="160" height="26" as="alternateBounds" />
          </mxGeometry>
        </mxCell>
        <mxCell id="1lEUYHELuhA4MckAKtJ3-12" value="- TypeSport : enum Sexe : enum &#xa;- sport : TypeSport &#xa;- sexe : Sexe &#xa;- classement: Map&lt;Participant, Double&gt;&#xa;- participants: List&lt;Participant&gt;&#xa;" style="text;align=left;verticalAlign=top;spacingLeft=4;spacingRight=4;overflow=hidden;rotatable=0;points=[[0,0.5],[1,0.5]];portConstraint=eastwest;" parent="1lEUYHELuhA4MckAKtJ3-11" vertex="1">
          <mxGeometry y="40" width="261" height="84" as="geometry" />
        </mxCell>
        <mxCell id="1lEUYHELuhA4MckAKtJ3-14" value="" style="line;html=1;strokeWidth=1;align=left;verticalAlign=middle;spacingTop=-1;spacingLeft=3;spacingRight=3;rotatable=0;labelPosition=right;points=[];portConstraint=eastwest;" parent="1lEUYHELuhA4MckAKtJ3-11" vertex="1">
          <mxGeometry y="124" width="261" height="20" as="geometry" />
        </mxCell>
        <mxCell id="1lEUYHELuhA4MckAKtJ3-15" value="+ Epreuve(sport : TypeSport, sexe : Sexe) &#xa;+ getSport() : TypeSport &#xa;+ setSport(TypeSport sport): void&#xa;+ getParticipants() : List&lt;Participant&gt; &#xa;+ getSexe() : Sexe &#xa;+ getClassement(): Map&lt;Participant, Double &gt;&#xa;+ jouerEpreuve() : void&#xa;+ majClassement() : void&#xa;+ getVainqueur() : Participant&#xa;+ getPaysVainqueur() : Pays&#xa;+ calculeScore() : double&#xa;+ toString() : String&#xa;+ rapport() : String&#xa;&#xa;&#xa;&#xa;&#xa;" style="text;align=left;verticalAlign=top;spacingLeft=4;spacingRight=4;overflow=hidden;rotatable=0;points=[[0,0.5],[1,0.5]];portConstraint=eastwest;" parent="1lEUYHELuhA4MckAKtJ3-11" vertex="1">
          <mxGeometry y="144" width="261" height="196" as="geometry" />
        </mxCell>
        <mxCell id="1lEUYHELuhA4MckAKtJ3-16" value="" style="endArrow=block;html=1;rounded=0;endFill=0;entryX=0.25;entryY=0;entryDx=0;entryDy=0;exitX=0.5;exitY=1;exitDx=0;exitDy=0;" parent="WIyWlLk6GJQsqaUBKTNV-1" source="1lEUYHELuhA4MckAKtJ3-5" target="1lEUYHELuhA4MckAKtJ3-11" edge="1">
          <mxGeometry width="50" height="50" relative="1" as="geometry">
            <mxPoint x="453" y="1010" as="sourcePoint" />
            <mxPoint x="393" y="1050" as="targetPoint" />
          </mxGeometry>
        </mxCell>
        <mxCell id="1lEUYHELuhA4MckAKtJ3-9" value="" style="endArrow=block;html=1;rounded=0;endFill=0;exitX=0.5;exitY=1;exitDx=0;exitDy=0;entryX=0.75;entryY=0;entryDx=0;entryDy=0;" parent="WIyWlLk6GJQsqaUBKTNV-1" source="1lEUYHELuhA4MckAKtJ3-7" target="1lEUYHELuhA4MckAKtJ3-11" edge="1">
          <mxGeometry width="50" height="50" relative="1" as="geometry">
            <mxPoint x="589" y="925" as="sourcePoint" />
            <mxPoint x="469" y="1050" as="targetPoint" />
          </mxGeometry>
        </mxCell>
        <mxCell id="1lEUYHELuhA4MckAKtJ3-17" value="" style="endArrow=classic;html=1;rounded=0;exitX=0.535;exitY=0.01;exitDx=0;exitDy=0;entryX=0.821;entryY=1.008;entryDx=0;entryDy=0;entryPerimeter=0;exitPerimeter=0;" parent="WIyWlLk6GJQsqaUBKTNV-1" source="1lEUYHELuhA4MckAKtJ3-5" target="zkfFHV4jXpPFQw0GAbJ--11" edge="1">
          <mxGeometry width="50" height="50" relative="1" as="geometry">
            <mxPoint x="300" y="950" as="sourcePoint" />
            <mxPoint x="240" y="860" as="targetPoint" />
          </mxGeometry>
        </mxCell>
        <mxCell id="1lEUYHELuhA4MckAKtJ3-18" value="- lesParticipants" style="text;whiteSpace=wrap;html=1;" parent="WIyWlLk6GJQsqaUBKTNV-1" vertex="1">
          <mxGeometry x="150" y="900" width="90" height="30" as="geometry" />
        </mxCell>
        <mxCell id="1lEUYHELuhA4MckAKtJ3-19" value="&lt;font style=&quot;font-size: 24px;&quot;&gt;*&lt;/font&gt;" style="text;whiteSpace=wrap;html=1;" parent="WIyWlLk6GJQsqaUBKTNV-1" vertex="1">
          <mxGeometry x="269" y="900" width="20" height="20" as="geometry" />
        </mxCell>
        <mxCell id="1lEUYHELuhA4MckAKtJ3-20" value="" style="endArrow=classic;html=1;rounded=0;exitX=0.5;exitY=0;exitDx=0;exitDy=0;entryX=0.453;entryY=1;entryDx=0;entryDy=0;entryPerimeter=0;" parent="WIyWlLk6GJQsqaUBKTNV-1" source="1lEUYHELuhA4MckAKtJ3-7" target="c24FQxwEsqNwWbjkFZL--7" edge="1">
          <mxGeometry width="50" height="50" relative="1" as="geometry">
            <mxPoint x="540" y="989" as="sourcePoint" />
            <mxPoint x="630" y="840" as="targetPoint" />
          </mxGeometry>
        </mxCell>
        <mxCell id="1lEUYHELuhA4MckAKtJ3-21" value="- lesEquipes" style="text;whiteSpace=wrap;html=1;" parent="WIyWlLk6GJQsqaUBKTNV-1" vertex="1">
          <mxGeometry x="528.5" y="835" width="90" height="30" as="geometry" />
        </mxCell>
        <mxCell id="1lEUYHELuhA4MckAKtJ3-22" value="&lt;font style=&quot;font-size: 24px;&quot;&gt;*&lt;/font&gt;" style="text;whiteSpace=wrap;html=1;" parent="WIyWlLk6GJQsqaUBKTNV-1" vertex="1">
          <mxGeometry x="640" y="840" width="20" height="20" as="geometry" />
        </mxCell>
        <mxCell id="1lEUYHELuhA4MckAKtJ3-31" value="JeuxOlympique" style="swimlane;fontStyle=0;align=center;verticalAlign=top;childLayout=stackLayout;horizontal=1;startSize=26;horizontalStack=0;resizeParent=1;resizeLast=0;collapsible=1;marginBottom=0;rounded=0;shadow=0;strokeWidth=1;" parent="WIyWlLk6GJQsqaUBKTNV-1" vertex="1">
          <mxGeometry x="1020" y="890" width="470" height="390" as="geometry">
            <mxRectangle x="130" y="380" width="160" height="26" as="alternateBounds" />
          </mxGeometry>
        </mxCell>
        <mxCell id="1lEUYHELuhA4MckAKtJ3-32" value="- annee : int&#xa;- lieu : String&#xa;- nomJO : String&#xa;- classementPays :  List&lt;Pays&gt; &#xa;&#xa;&#xa;" style="text;align=left;verticalAlign=top;spacingLeft=4;spacingRight=4;overflow=hidden;rotatable=0;points=[[0,0.5],[1,0.5]];portConstraint=eastwest;" parent="1lEUYHELuhA4MckAKtJ3-31" vertex="1">
          <mxGeometry y="26" width="470" height="64" as="geometry" />
        </mxCell>
        <mxCell id="1lEUYHELuhA4MckAKtJ3-33" value="" style="line;html=1;strokeWidth=1;align=left;verticalAlign=middle;spacingTop=-1;spacingLeft=3;spacingRight=3;rotatable=0;labelPosition=right;points=[];portConstraint=eastwest;" parent="1lEUYHELuhA4MckAKtJ3-31" vertex="1">
          <mxGeometry y="90" width="470" height="8" as="geometry" />
        </mxCell>
        <mxCell id="1lEUYHELuhA4MckAKtJ3-34" value="+ JeuxOlympique(annee : int, lieu : String, nomJO : String)&#xa;+ getAnnee(): int&#xa;+ getLieu(): String&#xa;+ getNomJO(): String&#xa;+ setAnnee(int annee): void&#xa;+ setLieu(String lieu): void&#xa;+ setNomJO(String nomJO): void &#xa;+ AjouteEpreuve(epreuve : Epreuve) : void&#xa;+ VainqueurEpreuve(epreuve : Epreuve) : void&#xa;+ VainqueurJeuxOlympique() : Pays&#xa;+ getClassementPays(): List&lt;Pays&gt;&#xa;+ getScore(pays : Pays) : int &#xa;+ lancerToutesLesEpreuves(): void&#xa;+ lancerUneEpreuve(Epreuve epreuve): void&#xa;+ getLesPays(): List&lt;Pays&gt;&#xa;+ getEpreuvesParParticipant(cheminCSV : String) : Map&lt;Epreuve, List&lt;Participant&gt;&gt;&#xa;+ getEpreuveDuParticipant(a : Athlete) : List&lt;Epreuve&gt; &#xa;+ getEpreuveDuPays(pays : Pays) : List&lt;Epreuve&gt; &#xa;+ toString(): String&#xa;&#xa;&#xa;&#xa;&#xa;&#xa;&#xa;&#xa;&#xa;&#xa;&#xa;" style="text;align=left;verticalAlign=top;spacingLeft=4;spacingRight=4;overflow=hidden;rotatable=0;points=[[0,0.5],[1,0.5]];portConstraint=eastwest;" parent="1lEUYHELuhA4MckAKtJ3-31" vertex="1">
          <mxGeometry y="98" width="470" height="292" as="geometry" />
        </mxCell>
        <mxCell id="1lEUYHELuhA4MckAKtJ3-36" value="- lesEpreuves" style="text;whiteSpace=wrap;html=1;" parent="WIyWlLk6GJQsqaUBKTNV-1" vertex="1">
          <mxGeometry x="598.5" y="1370" width="90" height="30" as="geometry" />
        </mxCell>
        <mxCell id="1lEUYHELuhA4MckAKtJ3-37" value="" style="endArrow=classic;html=1;rounded=0;entryX=1;entryY=0.5;entryDx=0;entryDy=0;exitX=-0.003;exitY=0.726;exitDx=0;exitDy=0;exitPerimeter=0;" parent="WIyWlLk6GJQsqaUBKTNV-1" source="1lEUYHELuhA4MckAKtJ3-34" target="1lEUYHELuhA4MckAKtJ3-15" edge="1">
          <mxGeometry width="50" height="50" relative="1" as="geometry">
            <mxPoint x="649" y="1210" as="sourcePoint" />
            <mxPoint x="768" y="1085" as="targetPoint" />
          </mxGeometry>
        </mxCell>
        <mxCell id="1lEUYHELuhA4MckAKtJ3-38" value="&lt;font style=&quot;font-size: 24px;&quot;&gt;*&lt;/font&gt;" style="text;whiteSpace=wrap;html=1;" parent="WIyWlLk6GJQsqaUBKTNV-1" vertex="1">
          <mxGeometry x="598.5" y="1320" width="20" height="20" as="geometry" />
        </mxCell>
        <mxCell id="3zIEmJCq8tJn4nq8idd_-0" value="" style="endArrow=classic;html=1;rounded=0;exitX=0.291;exitY=0.007;exitDx=0;exitDy=0;entryX=0.836;entryY=1.025;entryDx=0;entryDy=0;entryPerimeter=0;exitPerimeter=0;" parent="WIyWlLk6GJQsqaUBKTNV-1" source="1lEUYHELuhA4MckAKtJ3-31" target="zkfFHV4jXpPFQw0GAbJ--5" edge="1">
          <mxGeometry width="50" height="50" relative="1" as="geometry">
            <mxPoint x="1063.9650000000001" y="500.0000000000001" as="sourcePoint" />
            <mxPoint x="1058" y="750" as="targetPoint" />
          </mxGeometry>
        </mxCell>
        <mxCell id="3zIEmJCq8tJn4nq8idd_-1" value="- lesPays" style="text;whiteSpace=wrap;html=1;" parent="WIyWlLk6GJQsqaUBKTNV-1" vertex="1">
          <mxGeometry x="1040" y="360" width="90" height="30" as="geometry" />
        </mxCell>
        <mxCell id="3zIEmJCq8tJn4nq8idd_-2" value="&lt;font style=&quot;font-size: 24px;&quot;&gt;*&lt;/font&gt;" style="text;whiteSpace=wrap;html=1;" parent="WIyWlLk6GJQsqaUBKTNV-1" vertex="1">
          <mxGeometry x="990" y="360" width="20" height="20" as="geometry" />
        </mxCell>
        <mxCell id="qkjxew0rmpi3oUevCYHF-4" value="" style="endArrow=block;html=1;rounded=0;dashed=1;endFill=1;exitX=0.645;exitY=-0.004;exitDx=0;exitDy=0;exitPerimeter=0;entryX=0.5;entryY=1;entryDx=0;entryDy=0;" parent="WIyWlLk6GJQsqaUBKTNV-1" source="c24FQxwEsqNwWbjkFZL--4" target="qkjxew0rmpi3oUevCYHF-5" edge="1">
          <mxGeometry width="50" height="50" relative="1" as="geometry">
            <mxPoint x="694.9000000000002" y="565" as="sourcePoint" />
            <mxPoint x="690" y="450" as="targetPoint" />
          </mxGeometry>
        </mxCell>
        <mxCell id="qkjxew0rmpi3oUevCYHF-5" value="Comparable&lt;Equipe&gt;" style="swimlane;fontStyle=0;align=center;verticalAlign=top;childLayout=stackLayout;horizontal=1;startSize=30;horizontalStack=0;resizeParent=1;resizeLast=0;collapsible=1;marginBottom=0;rounded=0;shadow=0;strokeWidth=1;" parent="WIyWlLk6GJQsqaUBKTNV-1" vertex="1">
          <mxGeometry x="605.75" y="360" width="190" height="60" as="geometry">
            <mxRectangle x="340" y="380" width="170" height="26" as="alternateBounds" />
          </mxGeometry>
        </mxCell>
        <mxCell id="qkjxew0rmpi3oUevCYHF-6" value="" style="line;html=1;strokeWidth=1;align=left;verticalAlign=middle;spacingTop=-1;spacingLeft=3;spacingRight=3;rotatable=0;labelPosition=right;points=[];portConstraint=eastwest;" parent="qkjxew0rmpi3oUevCYHF-5" vertex="1">
          <mxGeometry y="30" width="190" height="8" as="geometry" />
        </mxCell>
        <mxCell id="qkjxew0rmpi3oUevCYHF-9" value="Comparable&lt;Athlete&gt;" style="swimlane;fontStyle=0;align=center;verticalAlign=top;childLayout=stackLayout;horizontal=1;startSize=30;horizontalStack=0;resizeParent=1;resizeLast=0;collapsible=1;marginBottom=0;rounded=0;shadow=0;strokeWidth=1;" parent="WIyWlLk6GJQsqaUBKTNV-1" vertex="1">
          <mxGeometry x="39" y="380" width="230" height="60" as="geometry">
            <mxRectangle x="340" y="380" width="170" height="26" as="alternateBounds" />
          </mxGeometry>
        </mxCell>
        <mxCell id="qkjxew0rmpi3oUevCYHF-10" value="" style="line;html=1;strokeWidth=1;align=left;verticalAlign=middle;spacingTop=-1;spacingLeft=3;spacingRight=3;rotatable=0;labelPosition=right;points=[];portConstraint=eastwest;" parent="qkjxew0rmpi3oUevCYHF-9" vertex="1">
          <mxGeometry y="30" width="230" height="8" as="geometry" />
        </mxCell>
        <mxCell id="qkjxew0rmpi3oUevCYHF-11" value="" style="endArrow=block;html=1;rounded=0;dashed=1;endFill=1;exitX=0.286;exitY=0.011;exitDx=0;exitDy=0;exitPerimeter=0;entryX=0.5;entryY=1;entryDx=0;entryDy=0;" parent="qkjxew0rmpi3oUevCYHF-9" target="qkjxew0rmpi3oUevCYHF-9" edge="1">
          <mxGeometry width="50" height="50" relative="1" as="geometry">
            <mxPoint x="114" y="120" as="sourcePoint" />
            <mxPoint x="121" y="60" as="targetPoint" />
          </mxGeometry>
        </mxCell>
        <mxCell id="qkjxew0rmpi3oUevCYHF-12" value="1" style="text;whiteSpace=wrap;html=1;" parent="WIyWlLk6GJQsqaUBKTNV-1" vertex="1">
          <mxGeometry x="990" y="1160" width="20" height="20" as="geometry" />
        </mxCell>
        <mxCell id="qkjxew0rmpi3oUevCYHF-15" value="TropDeJoueursException" style="swimlane;fontStyle=0;align=center;verticalAlign=top;childLayout=stackLayout;horizontal=1;startSize=30;horizontalStack=0;resizeParent=1;resizeLast=0;collapsible=1;marginBottom=0;rounded=0;shadow=0;strokeWidth=1;" parent="WIyWlLk6GJQsqaUBKTNV-1" vertex="1">
          <mxGeometry x="810" y="941" width="170" height="50" as="geometry">
            <mxRectangle x="340" y="380" width="170" height="26" as="alternateBounds" />
          </mxGeometry>
        </mxCell>
        <mxCell id="qkjxew0rmpi3oUevCYHF-16" value="" style="line;html=1;strokeWidth=1;align=left;verticalAlign=middle;spacingTop=-1;spacingLeft=3;spacingRight=3;rotatable=0;labelPosition=right;points=[];portConstraint=eastwest;" parent="qkjxew0rmpi3oUevCYHF-15" vertex="1">
          <mxGeometry y="30" width="170" height="8" as="geometry" />
        </mxCell>
        <mxCell id="qkjxew0rmpi3oUevCYHF-17" value="EquipeDejaParticipanteExcept" style="swimlane;fontStyle=0;align=center;verticalAlign=top;childLayout=stackLayout;horizontal=1;startSize=30;horizontalStack=0;resizeParent=1;resizeLast=0;collapsible=1;marginBottom=0;rounded=0;shadow=0;strokeWidth=1;" parent="WIyWlLk6GJQsqaUBKTNV-1" vertex="1">
          <mxGeometry x="720" y="840" width="180" height="50" as="geometry">
            <mxRectangle x="340" y="380" width="170" height="26" as="alternateBounds" />
          </mxGeometry>
        </mxCell>
        <mxCell id="qkjxew0rmpi3oUevCYHF-18" value="" style="line;html=1;strokeWidth=1;align=left;verticalAlign=middle;spacingTop=-1;spacingLeft=3;spacingRight=3;rotatable=0;labelPosition=right;points=[];portConstraint=eastwest;" parent="qkjxew0rmpi3oUevCYHF-17" vertex="1">
          <mxGeometry y="30" width="180" height="8" as="geometry" />
        </mxCell>
        <mxCell id="qkjxew0rmpi3oUevCYHF-19" value="PasUneEquipeException" style="swimlane;fontStyle=0;align=center;verticalAlign=top;childLayout=stackLayout;horizontal=1;startSize=30;horizontalStack=0;resizeParent=1;resizeLast=0;collapsible=1;marginBottom=0;rounded=0;shadow=0;strokeWidth=1;" parent="WIyWlLk6GJQsqaUBKTNV-1" vertex="1">
          <mxGeometry x="690" y="1130" width="175" height="50" as="geometry">
            <mxRectangle x="340" y="380" width="170" height="26" as="alternateBounds" />
          </mxGeometry>
        </mxCell>
        <mxCell id="qkjxew0rmpi3oUevCYHF-20" value="" style="line;html=1;strokeWidth=1;align=left;verticalAlign=middle;spacingTop=-1;spacingLeft=3;spacingRight=3;rotatable=0;labelPosition=right;points=[];portConstraint=eastwest;" parent="qkjxew0rmpi3oUevCYHF-19" vertex="1">
          <mxGeometry y="30" width="175" height="8" as="geometry" />
        </mxCell>
        <mxCell id="qkjxew0rmpi3oUevCYHF-21" value="PasAssezDeJoueursException" style="swimlane;fontStyle=0;align=center;verticalAlign=top;childLayout=stackLayout;horizontal=1;startSize=30;horizontalStack=0;resizeParent=1;resizeLast=0;collapsible=1;marginBottom=0;rounded=0;shadow=0;strokeWidth=1;" parent="WIyWlLk6GJQsqaUBKTNV-1" vertex="1">
          <mxGeometry x="818.5" y="1041" width="180" height="50" as="geometry">
            <mxRectangle x="340" y="380" width="170" height="26" as="alternateBounds" />
          </mxGeometry>
        </mxCell>
        <mxCell id="qkjxew0rmpi3oUevCYHF-22" value="" style="line;html=1;strokeWidth=1;align=left;verticalAlign=middle;spacingTop=-1;spacingLeft=3;spacingRight=3;rotatable=0;labelPosition=right;points=[];portConstraint=eastwest;" parent="qkjxew0rmpi3oUevCYHF-21" vertex="1">
          <mxGeometry y="30" width="180" height="8" as="geometry" />
        </mxCell>
        <mxCell id="qkjxew0rmpi3oUevCYHF-24" value="" style="endArrow=block;html=1;rounded=0;endFill=1;dashed=1;dashPattern=1 4;exitX=1;exitY=0.25;exitDx=0;exitDy=0;entryX=0;entryY=0.5;entryDx=0;entryDy=0;strokeWidth=2;" parent="WIyWlLk6GJQsqaUBKTNV-1" source="1lEUYHELuhA4MckAKtJ3-7" target="qkjxew0rmpi3oUevCYHF-15" edge="1">
          <mxGeometry width="50" height="50" relative="1" as="geometry">
            <mxPoint x="645" y="958" as="sourcePoint" />
            <mxPoint x="765" y="880" as="targetPoint" />
          </mxGeometry>
        </mxCell>
        <mxCell id="qkjxew0rmpi3oUevCYHF-26" value="" style="endArrow=block;html=1;rounded=0;endFill=1;dashed=1;dashPattern=1 4;entryX=0;entryY=0.5;entryDx=0;entryDy=0;exitX=1;exitY=0.5;exitDx=0;exitDy=0;strokeWidth=2;" parent="WIyWlLk6GJQsqaUBKTNV-1" source="qkjxew0rmpi3oUevCYHF-1" target="qkjxew0rmpi3oUevCYHF-21" edge="1">
          <mxGeometry width="50" height="50" relative="1" as="geometry">
            <mxPoint x="690" y="1000" as="sourcePoint" />
            <mxPoint x="770" y="950" as="targetPoint" />
          </mxGeometry>
        </mxCell>
        <mxCell id="qkjxew0rmpi3oUevCYHF-27" value="" style="endArrow=block;html=1;rounded=0;endFill=1;dashed=1;dashPattern=1 4;entryX=0;entryY=0;entryDx=0;entryDy=0;exitX=0.75;exitY=1;exitDx=0;exitDy=0;strokeWidth=2;" parent="WIyWlLk6GJQsqaUBKTNV-1" source="qkjxew0rmpi3oUevCYHF-1" target="qkjxew0rmpi3oUevCYHF-19" edge="1">
          <mxGeometry width="50" height="50" relative="1" as="geometry">
            <mxPoint x="690" y="1050" as="sourcePoint" />
            <mxPoint x="765" y="1066" as="targetPoint" />
          </mxGeometry>
        </mxCell>
        <mxCell id="qkjxew0rmpi3oUevCYHF-28" value="" style="endArrow=block;html=1;rounded=0;endFill=1;dashed=1;dashPattern=1 4;exitX=0;exitY=0.5;exitDx=0;exitDy=0;entryX=1;entryY=0.5;entryDx=0;entryDy=0;strokeWidth=2;" parent="WIyWlLk6GJQsqaUBKTNV-1" source="1lEUYHELuhA4MckAKtJ3-5" target="qkjxew0rmpi3oUevCYHF-56" edge="1">
          <mxGeometry width="50" height="50" relative="1" as="geometry">
            <mxPoint x="70" y="1122" as="sourcePoint" />
            <mxPoint x="156.5" y="1030" as="targetPoint" />
          </mxGeometry>
        </mxCell>
        <mxCell id="qkjxew0rmpi3oUevCYHF-30" value="" style="endArrow=block;html=1;rounded=0;dashed=1;endFill=1;entryX=0.5;entryY=1;entryDx=0;entryDy=0;" parent="WIyWlLk6GJQsqaUBKTNV-1" source="zkfFHV4jXpPFQw0GAbJ--13" target="qkjxew0rmpi3oUevCYHF-31" edge="1">
          <mxGeometry width="50" height="50" relative="1" as="geometry">
            <mxPoint x="413.5" y="280" as="sourcePoint" />
            <mxPoint x="414.5" y="220" as="targetPoint" />
          </mxGeometry>
        </mxCell>
        <mxCell id="qkjxew0rmpi3oUevCYHF-31" value="Comparator&lt;Participant&gt;" style="swimlane;fontStyle=0;align=center;verticalAlign=top;childLayout=stackLayout;horizontal=1;startSize=30;horizontalStack=0;resizeParent=1;resizeLast=0;collapsible=1;marginBottom=0;rounded=0;shadow=0;strokeWidth=1;" parent="WIyWlLk6GJQsqaUBKTNV-1" vertex="1">
          <mxGeometry x="334" y="170" width="158.75" height="60" as="geometry">
            <mxRectangle x="340" y="380" width="170" height="26" as="alternateBounds" />
          </mxGeometry>
        </mxCell>
        <mxCell id="qkjxew0rmpi3oUevCYHF-32" value="" style="line;html=1;strokeWidth=1;align=left;verticalAlign=middle;spacingTop=-1;spacingLeft=3;spacingRight=3;rotatable=0;labelPosition=right;points=[];portConstraint=eastwest;" parent="qkjxew0rmpi3oUevCYHF-31" vertex="1">
          <mxGeometry y="30" width="158.75" height="8" as="geometry" />
        </mxCell>
        <mxCell id="qkjxew0rmpi3oUevCYHF-34" value="Comparator&lt;Pays&gt;" style="swimlane;fontStyle=0;align=center;verticalAlign=top;childLayout=stackLayout;horizontal=1;startSize=30;horizontalStack=0;resizeParent=1;resizeLast=0;collapsible=1;marginBottom=0;rounded=0;shadow=0;strokeWidth=1;" parent="WIyWlLk6GJQsqaUBKTNV-1" vertex="1">
          <mxGeometry x="838.5" y="60" width="160" height="60" as="geometry">
            <mxRectangle x="340" y="380" width="170" height="26" as="alternateBounds" />
          </mxGeometry>
        </mxCell>
        <mxCell id="qkjxew0rmpi3oUevCYHF-35" value="" style="line;html=1;strokeWidth=1;align=left;verticalAlign=middle;spacingTop=-1;spacingLeft=3;spacingRight=3;rotatable=0;labelPosition=right;points=[];portConstraint=eastwest;" parent="qkjxew0rmpi3oUevCYHF-34" vertex="1">
          <mxGeometry y="30" width="160" height="8" as="geometry" />
        </mxCell>
        <mxCell id="qkjxew0rmpi3oUevCYHF-36" value="" style="endArrow=block;html=1;rounded=0;dashed=1;endFill=1;exitX=0.5;exitY=0;exitDx=0;exitDy=0;" parent="WIyWlLk6GJQsqaUBKTNV-1" edge="1">
          <mxGeometry width="50" height="50" relative="1" as="geometry">
            <mxPoint x="917.75" y="160" as="sourcePoint" />
            <mxPoint x="918" y="120" as="targetPoint" />
          </mxGeometry>
        </mxCell>
        <mxCell id="qkjxew0rmpi3oUevCYHF-37" value="&lt;font style=&quot;font-size: 24px;&quot;&gt;*&lt;/font&gt;" style="text;whiteSpace=wrap;html=1;" parent="WIyWlLk6GJQsqaUBKTNV-1" vertex="1">
          <mxGeometry x="309" y="620" width="20" height="20" as="geometry" />
        </mxCell>
        <mxCell id="qkjxew0rmpi3oUevCYHF-38" value="1" style="text;whiteSpace=wrap;html=1;" parent="WIyWlLk6GJQsqaUBKTNV-1" vertex="1">
          <mxGeometry x="740" y="270" width="20" height="20" as="geometry" />
        </mxCell>
        <mxCell id="qkjxew0rmpi3oUevCYHF-39" value="&lt;font style=&quot;font-size: 24px;&quot;&gt;*&lt;/font&gt;" style="text;whiteSpace=wrap;html=1;" parent="WIyWlLk6GJQsqaUBKTNV-1" vertex="1">
          <mxGeometry x="495.75" y="310" width="20" height="20" as="geometry" />
        </mxCell>
        <mxCell id="qkjxew0rmpi3oUevCYHF-45" value="&lt;span style=&quot;color: rgb(0, 0, 0); font-family: Helvetica; font-size: 12px; font-variant-ligatures: normal; font-variant-caps: normal; font-weight: 400; letter-spacing: normal; orphans: 2; text-align: center; text-indent: 0px; text-transform: none; widows: 2; word-spacing: 0px; -webkit-text-stroke-width: 0px; white-space: nowrap; background-color: rgb(251, 251, 251); text-decoration-thickness: initial; text-decoration-style: initial; text-decoration-color: initial; float: none; display: inline !important;&quot;&gt;&lt;i&gt;&amp;lt;&amp;lt;implements&amp;gt;&amp;gt;&lt;/i&gt;&lt;/span&gt;" style="text;whiteSpace=wrap;html=1;" parent="WIyWlLk6GJQsqaUBKTNV-1" vertex="1">
          <mxGeometry x="928.5" y="130" width="91.5" height="20" as="geometry" />
        </mxCell>
        <mxCell id="qkjxew0rmpi3oUevCYHF-47" value="&lt;span style=&quot;color: rgb(0, 0, 0); font-family: Helvetica; font-size: 12px; font-variant-ligatures: normal; font-variant-caps: normal; font-weight: 400; letter-spacing: normal; orphans: 2; text-align: center; text-indent: 0px; text-transform: none; widows: 2; word-spacing: 0px; -webkit-text-stroke-width: 0px; white-space: nowrap; background-color: rgb(251, 251, 251); text-decoration-thickness: initial; text-decoration-style: initial; text-decoration-color: initial; float: none; display: inline !important;&quot;&gt;&lt;i&gt;&amp;lt;&amp;lt;implements&amp;gt;&amp;gt;&lt;/i&gt;&lt;/span&gt;" style="text;whiteSpace=wrap;html=1;" parent="WIyWlLk6GJQsqaUBKTNV-1" vertex="1">
          <mxGeometry x="420" y="250" width="91.5" height="20" as="geometry" />
        </mxCell>
        <mxCell id="qkjxew0rmpi3oUevCYHF-48" value="&lt;span style=&quot;color: rgb(0, 0, 0); font-family: Helvetica; font-size: 12px; font-variant-ligatures: normal; font-variant-caps: normal; font-weight: 400; letter-spacing: normal; orphans: 2; text-align: center; text-indent: 0px; text-transform: none; widows: 2; word-spacing: 0px; -webkit-text-stroke-width: 0px; white-space: nowrap; background-color: rgb(251, 251, 251); text-decoration-thickness: initial; text-decoration-style: initial; text-decoration-color: initial; float: none; display: inline !important;&quot;&gt;&lt;i&gt;&amp;lt;&amp;lt;implements&amp;gt;&amp;gt;&lt;/i&gt;&lt;/span&gt;" style="text;whiteSpace=wrap;html=1;" parent="WIyWlLk6GJQsqaUBKTNV-1" vertex="1">
          <mxGeometry x="165" y="460" width="91.5" height="20" as="geometry" />
        </mxCell>
        <mxCell id="qkjxew0rmpi3oUevCYHF-49" value="&lt;span style=&quot;color: rgb(0, 0, 0); font-family: Helvetica; font-size: 12px; font-variant-ligatures: normal; font-variant-caps: normal; font-weight: 400; letter-spacing: normal; orphans: 2; text-align: center; text-indent: 0px; text-transform: none; widows: 2; word-spacing: 0px; -webkit-text-stroke-width: 0px; white-space: nowrap; background-color: rgb(251, 251, 251); text-decoration-thickness: initial; text-decoration-style: initial; text-decoration-color: initial; float: none; display: inline !important;&quot;&gt;&lt;i&gt;&amp;lt;&amp;lt;implements&amp;gt;&amp;gt;&lt;/i&gt;&lt;/span&gt;" style="text;whiteSpace=wrap;html=1;" parent="WIyWlLk6GJQsqaUBKTNV-1" vertex="1">
          <mxGeometry x="704.25" y="450" width="91.5" height="20" as="geometry" />
        </mxCell>
        <mxCell id="qkjxew0rmpi3oUevCYHF-50" value="&lt;span style=&quot;color: rgb(0, 0, 0); font-family: Helvetica; font-size: 12px; font-variant-ligatures: normal; font-variant-caps: normal; font-weight: 400; letter-spacing: normal; orphans: 2; text-align: center; text-indent: 0px; text-transform: none; widows: 2; word-spacing: 0px; -webkit-text-stroke-width: 0px; white-space: nowrap; background-color: rgb(251, 251, 251); text-decoration-thickness: initial; text-decoration-style: initial; text-decoration-color: initial; float: none; display: inline !important;&quot;&gt;&lt;i&gt;&amp;lt;&amp;lt;exception&amp;gt;&amp;gt;&lt;/i&gt;&lt;/span&gt;" style="text;whiteSpace=wrap;html=1;" parent="WIyWlLk6GJQsqaUBKTNV-1" vertex="1">
          <mxGeometry x="718.5" y="950" width="91.5" height="20" as="geometry" />
        </mxCell>
        <mxCell id="qkjxew0rmpi3oUevCYHF-51" value="&lt;span style=&quot;color: rgb(0, 0, 0); font-family: Helvetica; font-size: 12px; font-variant-ligatures: normal; font-variant-caps: normal; font-weight: 400; letter-spacing: normal; orphans: 2; text-align: center; text-indent: 0px; text-transform: none; widows: 2; word-spacing: 0px; -webkit-text-stroke-width: 0px; white-space: nowrap; background-color: rgb(251, 251, 251); text-decoration-thickness: initial; text-decoration-style: initial; text-decoration-color: initial; float: none; display: inline !important;&quot;&gt;&lt;i&gt;&amp;lt;&amp;lt;exception&amp;gt;&amp;gt;&lt;/i&gt;&lt;/span&gt;" style="text;whiteSpace=wrap;html=1;" parent="WIyWlLk6GJQsqaUBKTNV-1" vertex="1">
          <mxGeometry x="740" y="1020" width="91.5" height="20" as="geometry" />
        </mxCell>
        <mxCell id="qkjxew0rmpi3oUevCYHF-52" value="&lt;span style=&quot;color: rgb(0, 0, 0); font-family: Helvetica; font-size: 12px; font-variant-ligatures: normal; font-variant-caps: normal; font-weight: 400; letter-spacing: normal; orphans: 2; text-align: center; text-indent: 0px; text-transform: none; widows: 2; word-spacing: 0px; -webkit-text-stroke-width: 0px; white-space: nowrap; background-color: rgb(251, 251, 251); text-decoration-thickness: initial; text-decoration-style: initial; text-decoration-color: initial; float: none; display: inline !important;&quot;&gt;&lt;i&gt;&amp;lt;&amp;lt;exception&amp;gt;&amp;gt;&lt;/i&gt;&lt;/span&gt;" style="text;whiteSpace=wrap;html=1;" parent="WIyWlLk6GJQsqaUBKTNV-1" vertex="1">
          <mxGeometry x="688.5" y="1091" width="91.5" height="20" as="geometry" />
        </mxCell>
        <mxCell id="qkjxew0rmpi3oUevCYHF-54" value="&lt;span style=&quot;color: rgb(0, 0, 0); font-family: Helvetica; font-size: 12px; font-variant-ligatures: normal; font-variant-caps: normal; font-weight: 400; letter-spacing: normal; orphans: 2; text-align: center; text-indent: 0px; text-transform: none; widows: 2; word-spacing: 0px; -webkit-text-stroke-width: 0px; white-space: nowrap; background-color: rgb(251, 251, 251); text-decoration-thickness: initial; text-decoration-style: initial; text-decoration-color: initial; float: none; display: inline !important;&quot;&gt;&lt;i&gt;&amp;lt;&amp;lt;exception&amp;gt;&amp;gt;&lt;/i&gt;&lt;/span&gt;" style="text;whiteSpace=wrap;html=1;" parent="WIyWlLk6GJQsqaUBKTNV-1" vertex="1">
          <mxGeometry x="-10" y="1035" width="91.5" height="20" as="geometry" />
        </mxCell>
        <mxCell id="qkjxew0rmpi3oUevCYHF-56" value="ParticipantDejaPresentException" style="swimlane;fontStyle=0;align=center;verticalAlign=top;childLayout=stackLayout;horizontal=1;startSize=30;horizontalStack=0;resizeParent=1;resizeLast=0;collapsible=1;marginBottom=0;rounded=0;shadow=0;strokeWidth=1;" parent="WIyWlLk6GJQsqaUBKTNV-1" vertex="1">
          <mxGeometry x="-200" y="1006" width="180" height="50" as="geometry">
            <mxRectangle x="340" y="380" width="170" height="26" as="alternateBounds" />
          </mxGeometry>
        </mxCell>
        <mxCell id="qkjxew0rmpi3oUevCYHF-57" value="" style="line;html=1;strokeWidth=1;align=left;verticalAlign=middle;spacingTop=-1;spacingLeft=3;spacingRight=3;rotatable=0;labelPosition=right;points=[];portConstraint=eastwest;" parent="qkjxew0rmpi3oUevCYHF-56" vertex="1">
          <mxGeometry y="30" width="180" height="8" as="geometry" />
        </mxCell>
        <mxCell id="qkjxew0rmpi3oUevCYHF-60" value="" style="endArrow=block;html=1;rounded=0;endFill=1;dashed=1;dashPattern=1 4;exitX=0.84;exitY=-0.021;exitDx=0;exitDy=0;exitPerimeter=0;entryX=0.25;entryY=1;entryDx=0;entryDy=0;strokeWidth=2;" parent="WIyWlLk6GJQsqaUBKTNV-1" source="1lEUYHELuhA4MckAKtJ3-7" target="qkjxew0rmpi3oUevCYHF-17" edge="1">
          <mxGeometry width="50" height="50" relative="1" as="geometry">
            <mxPoint x="650" y="936" as="sourcePoint" />
            <mxPoint x="730" y="890" as="targetPoint" />
          </mxGeometry>
        </mxCell>
        <mxCell id="qkjxew0rmpi3oUevCYHF-61" value="&lt;span style=&quot;color: rgb(0, 0, 0); font-family: Helvetica; font-size: 12px; font-variant-ligatures: normal; font-variant-caps: normal; font-weight: 400; letter-spacing: normal; orphans: 2; text-align: center; text-indent: 0px; text-transform: none; widows: 2; word-spacing: 0px; -webkit-text-stroke-width: 0px; white-space: nowrap; background-color: rgb(251, 251, 251); text-decoration-thickness: initial; text-decoration-style: initial; text-decoration-color: initial; float: none; display: inline !important;&quot;&gt;&lt;i&gt;&amp;lt;&amp;lt;exception&amp;gt;&amp;gt;&lt;/i&gt;&lt;/span&gt;" style="text;whiteSpace=wrap;html=1;" parent="WIyWlLk6GJQsqaUBKTNV-1" vertex="1">
          <mxGeometry x="640" y="890" width="91.5" height="20" as="geometry" />
        </mxCell>
        <mxCell id="qkjxew0rmpi3oUevCYHF-62" value="EpreuveDejaPresenteException" style="swimlane;fontStyle=0;align=center;verticalAlign=top;childLayout=stackLayout;horizontal=1;startSize=30;horizontalStack=0;resizeParent=1;resizeLast=0;collapsible=1;marginBottom=0;rounded=0;shadow=0;strokeWidth=1;" parent="WIyWlLk6GJQsqaUBKTNV-1" vertex="1">
          <mxGeometry x="910" y="1350" width="180" height="50" as="geometry">
            <mxRectangle x="340" y="380" width="170" height="26" as="alternateBounds" />
          </mxGeometry>
        </mxCell>
        <mxCell id="qkjxew0rmpi3oUevCYHF-63" value="" style="line;html=1;strokeWidth=1;align=left;verticalAlign=middle;spacingTop=-1;spacingLeft=3;spacingRight=3;rotatable=0;labelPosition=right;points=[];portConstraint=eastwest;" parent="qkjxew0rmpi3oUevCYHF-62" vertex="1">
          <mxGeometry y="30" width="180" height="8" as="geometry" />
        </mxCell>
        <mxCell id="qkjxew0rmpi3oUevCYHF-64" value="EpreuveNonCommenceeException" style="swimlane;fontStyle=0;align=center;verticalAlign=top;childLayout=stackLayout;horizontal=1;startSize=30;horizontalStack=0;resizeParent=1;resizeLast=0;collapsible=1;marginBottom=0;rounded=0;shadow=0;strokeWidth=1;" parent="WIyWlLk6GJQsqaUBKTNV-1" vertex="1">
          <mxGeometry x="1141" y="1360" width="200" height="50" as="geometry">
            <mxRectangle x="340" y="380" width="170" height="26" as="alternateBounds" />
          </mxGeometry>
        </mxCell>
        <mxCell id="qkjxew0rmpi3oUevCYHF-65" value="" style="line;html=1;strokeWidth=1;align=left;verticalAlign=middle;spacingTop=-1;spacingLeft=3;spacingRight=3;rotatable=0;labelPosition=right;points=[];portConstraint=eastwest;" parent="qkjxew0rmpi3oUevCYHF-64" vertex="1">
          <mxGeometry y="30" width="200" height="8" as="geometry" />
        </mxCell>
        <mxCell id="qkjxew0rmpi3oUevCYHF-66" value="JeuxPasCommenceException" style="swimlane;fontStyle=0;align=center;verticalAlign=top;childLayout=stackLayout;horizontal=1;startSize=30;horizontalStack=0;resizeParent=1;resizeLast=0;collapsible=1;marginBottom=0;rounded=0;shadow=0;strokeWidth=1;" parent="WIyWlLk6GJQsqaUBKTNV-1" vertex="1">
          <mxGeometry x="1410" y="1330" width="180" height="50" as="geometry">
            <mxRectangle x="340" y="380" width="170" height="26" as="alternateBounds" />
          </mxGeometry>
        </mxCell>
        <mxCell id="qkjxew0rmpi3oUevCYHF-67" value="" style="line;html=1;strokeWidth=1;align=left;verticalAlign=middle;spacingTop=-1;spacingLeft=3;spacingRight=3;rotatable=0;labelPosition=right;points=[];portConstraint=eastwest;" parent="qkjxew0rmpi3oUevCYHF-66" vertex="1">
          <mxGeometry y="30" width="180" height="8" as="geometry" />
        </mxCell>
        <mxCell id="qkjxew0rmpi3oUevCYHF-68" value="EpreuveDejaJoueeException" style="swimlane;fontStyle=0;align=center;verticalAlign=top;childLayout=stackLayout;horizontal=1;startSize=30;horizontalStack=0;resizeParent=1;resizeLast=0;collapsible=1;marginBottom=0;rounded=0;shadow=0;strokeWidth=1;" parent="WIyWlLk6GJQsqaUBKTNV-1" vertex="1">
          <mxGeometry x="1610" y="1200" width="180" height="50" as="geometry">
            <mxRectangle x="340" y="380" width="170" height="26" as="alternateBounds" />
          </mxGeometry>
        </mxCell>
        <mxCell id="qkjxew0rmpi3oUevCYHF-69" value="" style="line;html=1;strokeWidth=1;align=left;verticalAlign=middle;spacingTop=-1;spacingLeft=3;spacingRight=3;rotatable=0;labelPosition=right;points=[];portConstraint=eastwest;" parent="qkjxew0rmpi3oUevCYHF-68" vertex="1">
          <mxGeometry y="30" width="180" height="8" as="geometry" />
        </mxCell>
        <mxCell id="qkjxew0rmpi3oUevCYHF-71" value="" style="endArrow=block;html=1;rounded=0;endFill=1;dashed=1;dashPattern=1 4;exitX=1.007;exitY=0.564;exitDx=0;exitDy=0;exitPerimeter=0;entryX=0;entryY=0;entryDx=0;entryDy=0;strokeWidth=2;" parent="WIyWlLk6GJQsqaUBKTNV-1" source="1lEUYHELuhA4MckAKtJ3-34" target="qkjxew0rmpi3oUevCYHF-68" edge="1">
          <mxGeometry width="50" height="50" relative="1" as="geometry">
            <mxPoint x="1380" y="1100" as="sourcePoint" />
            <mxPoint x="1430" y="1192" as="targetPoint" />
          </mxGeometry>
        </mxCell>
        <mxCell id="qkjxew0rmpi3oUevCYHF-72" value="" style="endArrow=block;html=1;rounded=0;endFill=1;dashed=1;dashPattern=1 4;exitX=0.997;exitY=0.994;exitDx=0;exitDy=0;exitPerimeter=0;entryX=0.444;entryY=-0.075;entryDx=0;entryDy=0;entryPerimeter=0;strokeWidth=2;" parent="WIyWlLk6GJQsqaUBKTNV-1" source="1lEUYHELuhA4MckAKtJ3-34" target="qkjxew0rmpi3oUevCYHF-66" edge="1">
          <mxGeometry width="50" height="50" relative="1" as="geometry">
            <mxPoint x="1370" y="1200" as="sourcePoint" />
            <mxPoint x="1477" y="1272" as="targetPoint" />
          </mxGeometry>
        </mxCell>
        <mxCell id="qkjxew0rmpi3oUevCYHF-73" value="" style="endArrow=block;html=1;rounded=0;endFill=1;dashed=1;dashPattern=1 4;entryX=0.5;entryY=0;entryDx=0;entryDy=0;exitX=0.551;exitY=1.011;exitDx=0;exitDy=0;exitPerimeter=0;strokeWidth=2;" parent="WIyWlLk6GJQsqaUBKTNV-1" source="1lEUYHELuhA4MckAKtJ3-34" target="qkjxew0rmpi3oUevCYHF-64" edge="1">
          <mxGeometry width="50" height="50" relative="1" as="geometry">
            <mxPoint x="1230" y="1205" as="sourcePoint" />
            <mxPoint x="1255.5" y="1277" as="targetPoint" />
          </mxGeometry>
        </mxCell>
        <mxCell id="qkjxew0rmpi3oUevCYHF-74" value="" style="endArrow=block;html=1;rounded=0;endFill=1;dashed=1;dashPattern=1 4;entryX=0.5;entryY=0;entryDx=0;entryDy=0;exitX=0.217;exitY=1.014;exitDx=0;exitDy=0;exitPerimeter=0;strokeWidth=2;" parent="WIyWlLk6GJQsqaUBKTNV-1" source="1lEUYHELuhA4MckAKtJ3-34" target="qkjxew0rmpi3oUevCYHF-62" edge="1">
          <mxGeometry width="50" height="50" relative="1" as="geometry">
            <mxPoint x="1094" y="1200" as="sourcePoint" />
            <mxPoint x="1096" y="1288" as="targetPoint" />
          </mxGeometry>
        </mxCell>
        <mxCell id="qkjxew0rmpi3oUevCYHF-75" value="&lt;span style=&quot;color: rgb(0, 0, 0); font-family: Helvetica; font-size: 12px; font-variant-ligatures: normal; font-variant-caps: normal; font-weight: 400; letter-spacing: normal; orphans: 2; text-align: center; text-indent: 0px; text-transform: none; widows: 2; word-spacing: 0px; -webkit-text-stroke-width: 0px; white-space: nowrap; background-color: rgb(251, 251, 251); text-decoration-thickness: initial; text-decoration-style: initial; text-decoration-color: initial; float: none; display: inline !important;&quot;&gt;&lt;i&gt;&amp;lt;&amp;lt;exception&amp;gt;&amp;gt;&lt;/i&gt;&lt;/span&gt;" style="text;whiteSpace=wrap;html=1;" parent="WIyWlLk6GJQsqaUBKTNV-1" vertex="1">
          <mxGeometry x="1080" y="1290" width="91.5" height="20" as="geometry" />
        </mxCell>
        <mxCell id="qkjxew0rmpi3oUevCYHF-76" value="&lt;span style=&quot;color: rgb(0, 0, 0); font-family: Helvetica; font-size: 12px; font-variant-ligatures: normal; font-variant-caps: normal; font-weight: 400; letter-spacing: normal; orphans: 2; text-align: center; text-indent: 0px; text-transform: none; widows: 2; word-spacing: 0px; -webkit-text-stroke-width: 0px; white-space: nowrap; background-color: rgb(251, 251, 251); text-decoration-thickness: initial; text-decoration-style: initial; text-decoration-color: initial; float: none; display: inline !important;&quot;&gt;&lt;i&gt;&amp;lt;&amp;lt;exception&amp;gt;&amp;gt;&lt;/i&gt;&lt;/span&gt;" style="text;whiteSpace=wrap;html=1;" parent="WIyWlLk6GJQsqaUBKTNV-1" vertex="1">
          <mxGeometry x="1280" y="1290" width="91.5" height="20" as="geometry" />
        </mxCell>
        <mxCell id="qkjxew0rmpi3oUevCYHF-77" value="&lt;span style=&quot;color: rgb(0, 0, 0); font-family: Helvetica; font-size: 12px; font-variant-ligatures: normal; font-variant-caps: normal; font-weight: 400; letter-spacing: normal; orphans: 2; text-align: center; text-indent: 0px; text-transform: none; widows: 2; word-spacing: 0px; -webkit-text-stroke-width: 0px; white-space: nowrap; background-color: rgb(251, 251, 251); text-decoration-thickness: initial; text-decoration-style: initial; text-decoration-color: initial; float: none; display: inline !important;&quot;&gt;&lt;i&gt;&amp;lt;&amp;lt;exception&amp;gt;&amp;gt;&lt;/i&gt;&lt;/span&gt;" style="text;whiteSpace=wrap;html=1;" parent="WIyWlLk6GJQsqaUBKTNV-1" vertex="1">
          <mxGeometry x="1490" y="1260" width="91.5" height="20" as="geometry" />
        </mxCell>
        <mxCell id="qkjxew0rmpi3oUevCYHF-78" value="&lt;span style=&quot;color: rgb(0, 0, 0); font-family: Helvetica; font-size: 12px; font-variant-ligatures: normal; font-variant-caps: normal; font-weight: 400; letter-spacing: normal; orphans: 2; text-align: center; text-indent: 0px; text-transform: none; widows: 2; word-spacing: 0px; -webkit-text-stroke-width: 0px; white-space: nowrap; background-color: rgb(251, 251, 251); text-decoration-thickness: initial; text-decoration-style: initial; text-decoration-color: initial; float: none; display: inline !important;&quot;&gt;&lt;i&gt;&amp;lt;&amp;lt;exception&amp;gt;&amp;gt;&lt;/i&gt;&lt;/span&gt;" style="text;whiteSpace=wrap;html=1;" parent="WIyWlLk6GJQsqaUBKTNV-1" vertex="1">
          <mxGeometry x="1563" y="1140" width="91.5" height="20" as="geometry" />
        </mxCell>
        <mxCell id="0BSIf9uBEXcBJpG53O3L-0" value="ApplicationJeuxOlympique" style="swimlane;fontStyle=0;align=center;verticalAlign=top;childLayout=stackLayout;horizontal=1;startSize=30;horizontalStack=0;resizeParent=1;resizeLast=0;collapsible=1;marginBottom=0;rounded=0;shadow=0;strokeWidth=1;" vertex="1" parent="WIyWlLk6GJQsqaUBKTNV-1">
          <mxGeometry x="1920" y="550" width="270" height="1040" as="geometry">
            <mxRectangle x="340" y="380" width="170" height="26" as="alternateBounds" />
          </mxGeometry>
        </mxCell>
        <mxCell id="0BSIf9uBEXcBJpG53O3L-1" value="" style="line;html=1;strokeWidth=1;align=left;verticalAlign=middle;spacingTop=-1;spacingLeft=3;spacingRight=3;rotatable=0;labelPosition=right;points=[];portConstraint=eastwest;" vertex="1" parent="0BSIf9uBEXcBJpG53O3L-0">
          <mxGeometry y="30" width="270" height="1010" as="geometry" />
        </mxCell>
        <mxCell id="0BSIf9uBEXcBJpG53O3L-2" value="&lt;div align=&quot;left&quot;&gt;-modele : JeuxOlympique&lt;br&gt;-requete : Requete&lt;br&gt;-primaryStage : Stage&lt;br&gt;-sceneFenetreAccueil : Scene&lt;br&gt;-sceneConnexion :&amp;nbsp; Scene&lt;br&gt;-sceneInscription : Scene&lt;br&gt;-sceneClassement : Scene&lt;br&gt;-sceneAccueilAdmin : Scene&lt;br&gt;-sceneAccueilOrganisateur : Scene&lt;br&gt;-sceneGestionUtilisateur : Scene&lt;br&gt;-sceneAjoutDonnees : Scene&lt;br&gt;-sceneModificationDonnée : Scene&lt;br&gt;-sceneJournalisteAccueil : Scene&lt;br&gt;-sceneAthletes : Scene&lt;br&gt;-sceneEquipe : Scene&lt;br&gt;-sceneAjouterUnAthlete : Scene&lt;br&gt;-sceneAjouterEquipe : Scene&lt;br&gt;-sceneModificationDonnéeAthlete : Scene&lt;br&gt;-sceneGestionEpreuve : Scene&lt;br&gt;-sceneAjouterEpreuve : Scene&lt;br&gt;-loaderAccueil : FXMLLoader&lt;br&gt;-loaderConnexion : FXMLLoader&lt;br&gt;-loaderInscription : FXMLLoader&lt;br&gt;-loaderClassement : FXMLLoader&lt;br&gt;-loaderAccueilAdmin : FXMLLoader&lt;br&gt;-loaderAccueilOrganisateur : FXMLLoader&lt;br&gt;-loaderGestionUtilisateur : FXMLLoader&lt;br&gt;-loaderAjoutDonnees : FXMLLoader&lt;br&gt;-loaderModificationDonnée : FXMLLoader&lt;br&gt;-loaderJournalisteAccueil : FXMLLoader&lt;br&gt;-loaderAthletes : FXMLLoader&lt;br&gt;-loaderEquipe : FXMLLoader&lt;br&gt;-loaderAjouterUnAthlete : FXMLLoader&lt;br&gt;-loaderGererEpreuve : FXMLLoader&lt;/div&gt;" style="text;html=1;align=left;verticalAlign=middle;resizable=0;points=[];autosize=1;strokeColor=none;fillColor=none;" vertex="1" parent="WIyWlLk6GJQsqaUBKTNV-1">
          <mxGeometry x="1920" y="585" width="250" height="500" as="geometry" />
        </mxCell>
        <mxCell id="0BSIf9uBEXcBJpG53O3L-5" value="AjouterUneEpreuveScene" style="swimlane;fontStyle=2;align=center;verticalAlign=top;childLayout=stackLayout;horizontal=1;startSize=26;horizontalStack=0;resizeParent=1;resizeLast=0;collapsible=1;marginBottom=0;rounded=0;shadow=0;strokeWidth=1;" vertex="1" parent="WIyWlLk6GJQsqaUBKTNV-1">
          <mxGeometry x="1420" y="520" width="340" height="110" as="geometry">
            <mxRectangle x="230" y="140" width="160" height="26" as="alternateBounds" />
          </mxGeometry>
        </mxCell>
        <mxCell id="0BSIf9uBEXcBJpG53O3L-6" value="- appli : ApplicationJeuxOlympique &#xa;&#xa;" style="text;align=left;verticalAlign=top;spacingLeft=4;spacingRight=4;overflow=hidden;rotatable=0;points=[[0,0.5],[1,0.5]];portConstraint=eastwest;" vertex="1" parent="0BSIf9uBEXcBJpG53O3L-5">
          <mxGeometry y="26" width="340" height="24" as="geometry" />
        </mxCell>
        <mxCell id="0BSIf9uBEXcBJpG53O3L-7" value="" style="line;html=1;strokeWidth=1;align=left;verticalAlign=middle;spacingTop=-1;spacingLeft=3;spacingRight=3;rotatable=0;labelPosition=right;points=[];portConstraint=eastwest;" vertex="1" parent="0BSIf9uBEXcBJpG53O3L-5">
          <mxGeometry y="50" width="340" height="8" as="geometry" />
        </mxCell>
        <mxCell id="0BSIf9uBEXcBJpG53O3L-8" value="+ AjouterUneEpreuveScene(appli : ApplicationJeuxOlympique )&#xa;+ createScene() : Scene&#xa;&#xa;&#xa;&#xa;&#xa;&#xa;&#xa;" style="text;align=left;verticalAlign=top;spacingLeft=4;spacingRight=4;overflow=hidden;rotatable=0;points=[[0,0.5],[1,0.5]];portConstraint=eastwest;" vertex="1" parent="0BSIf9uBEXcBJpG53O3L-5">
          <mxGeometry y="58" width="340" height="42" as="geometry" />
        </mxCell>
        <mxCell id="0BSIf9uBEXcBJpG53O3L-9" value="AjouterUneEquipeScene" style="swimlane;fontStyle=2;align=center;verticalAlign=top;childLayout=stackLayout;horizontal=1;startSize=26;horizontalStack=0;resizeParent=1;resizeLast=0;collapsible=1;marginBottom=0;rounded=0;shadow=0;strokeWidth=1;" vertex="1" parent="WIyWlLk6GJQsqaUBKTNV-1">
          <mxGeometry x="1630" y="210" width="297" height="190" as="geometry">
            <mxRectangle x="230" y="140" width="160" height="26" as="alternateBounds" />
          </mxGeometry>
        </mxCell>
        <mxCell id="0BSIf9uBEXcBJpG53O3L-10" value="- nomPays : String&#xa;- scoreTotal : int&#xa;- medailles : Map&lt;String, Integer&gt;" style="text;align=left;verticalAlign=top;spacingLeft=4;spacingRight=4;overflow=hidden;rotatable=0;points=[[0,0.5],[1,0.5]];portConstraint=eastwest;" vertex="1" parent="0BSIf9uBEXcBJpG53O3L-9">
          <mxGeometry y="26" width="297" height="54" as="geometry" />
        </mxCell>
        <mxCell id="0BSIf9uBEXcBJpG53O3L-11" value="" style="line;html=1;strokeWidth=1;align=left;verticalAlign=middle;spacingTop=-1;spacingLeft=3;spacingRight=3;rotatable=0;labelPosition=right;points=[];portConstraint=eastwest;" vertex="1" parent="0BSIf9uBEXcBJpG53O3L-9">
          <mxGeometry y="80" width="297" height="8" as="geometry" />
        </mxCell>
        <mxCell id="0BSIf9uBEXcBJpG53O3L-12" value="+ Pays(nom : String)&#xa;+ getScoreTotal() : int&#xa;+ getNomPays() : String&#xa;+ ajouterMedaille(typeMedaille : String) : void&#xa;+ getMedailles() : Map&lt;String, Integer&gt;&#xa;+ toString() : String&#xa;&#xa;&#xa;" style="text;align=left;verticalAlign=top;spacingLeft=4;spacingRight=4;overflow=hidden;rotatable=0;points=[[0,0.5],[1,0.5]];portConstraint=eastwest;" vertex="1" parent="0BSIf9uBEXcBJpG53O3L-9">
          <mxGeometry y="88" width="297" height="102" as="geometry" />
        </mxCell>
        <mxCell id="0BSIf9uBEXcBJpG53O3L-13" value="ModifierAthleteScene" style="swimlane;fontStyle=2;align=center;verticalAlign=top;childLayout=stackLayout;horizontal=1;startSize=26;horizontalStack=0;resizeParent=1;resizeLast=0;collapsible=1;marginBottom=0;rounded=0;shadow=0;strokeWidth=1;" vertex="1" parent="WIyWlLk6GJQsqaUBKTNV-1">
          <mxGeometry x="2030" y="150" width="297" height="190" as="geometry">
            <mxRectangle x="230" y="140" width="160" height="26" as="alternateBounds" />
          </mxGeometry>
        </mxCell>
        <mxCell id="0BSIf9uBEXcBJpG53O3L-14" value="- nomPays : String&#xa;- scoreTotal : int&#xa;- medailles : Map&lt;String, Integer&gt;" style="text;align=left;verticalAlign=top;spacingLeft=4;spacingRight=4;overflow=hidden;rotatable=0;points=[[0,0.5],[1,0.5]];portConstraint=eastwest;" vertex="1" parent="0BSIf9uBEXcBJpG53O3L-13">
          <mxGeometry y="26" width="297" height="54" as="geometry" />
        </mxCell>
        <mxCell id="0BSIf9uBEXcBJpG53O3L-15" value="" style="line;html=1;strokeWidth=1;align=left;verticalAlign=middle;spacingTop=-1;spacingLeft=3;spacingRight=3;rotatable=0;labelPosition=right;points=[];portConstraint=eastwest;" vertex="1" parent="0BSIf9uBEXcBJpG53O3L-13">
          <mxGeometry y="80" width="297" height="8" as="geometry" />
        </mxCell>
        <mxCell id="0BSIf9uBEXcBJpG53O3L-16" value="+ Pays(nom : String)&#xa;+ getScoreTotal() : int&#xa;+ getNomPays() : String&#xa;+ ajouterMedaille(typeMedaille : String) : void&#xa;+ getMedailles() : Map&lt;String, Integer&gt;&#xa;+ toString() : String&#xa;&#xa;&#xa;" style="text;align=left;verticalAlign=top;spacingLeft=4;spacingRight=4;overflow=hidden;rotatable=0;points=[[0,0.5],[1,0.5]];portConstraint=eastwest;" vertex="1" parent="0BSIf9uBEXcBJpG53O3L-13">
          <mxGeometry y="88" width="297" height="102" as="geometry" />
        </mxCell>
        <mxCell id="0BSIf9uBEXcBJpG53O3L-17" value="SceneAthletes" style="swimlane;fontStyle=2;align=center;verticalAlign=top;childLayout=stackLayout;horizontal=1;startSize=26;horizontalStack=0;resizeParent=1;resizeLast=0;collapsible=1;marginBottom=0;rounded=0;shadow=0;strokeWidth=1;" vertex="1" parent="WIyWlLk6GJQsqaUBKTNV-1">
          <mxGeometry x="2440" y="225" width="297" height="190" as="geometry">
            <mxRectangle x="230" y="140" width="160" height="26" as="alternateBounds" />
          </mxGeometry>
        </mxCell>
        <mxCell id="0BSIf9uBEXcBJpG53O3L-18" value="- nomPays : String&#xa;- scoreTotal : int&#xa;- medailles : Map&lt;String, Integer&gt;" style="text;align=left;verticalAlign=top;spacingLeft=4;spacingRight=4;overflow=hidden;rotatable=0;points=[[0,0.5],[1,0.5]];portConstraint=eastwest;" vertex="1" parent="0BSIf9uBEXcBJpG53O3L-17">
          <mxGeometry y="26" width="297" height="54" as="geometry" />
        </mxCell>
        <mxCell id="0BSIf9uBEXcBJpG53O3L-19" value="" style="line;html=1;strokeWidth=1;align=left;verticalAlign=middle;spacingTop=-1;spacingLeft=3;spacingRight=3;rotatable=0;labelPosition=right;points=[];portConstraint=eastwest;" vertex="1" parent="0BSIf9uBEXcBJpG53O3L-17">
          <mxGeometry y="80" width="297" height="8" as="geometry" />
        </mxCell>
        <mxCell id="0BSIf9uBEXcBJpG53O3L-20" value="+ Pays(nom : String)&#xa;+ getScoreTotal() : int&#xa;+ getNomPays() : String&#xa;+ ajouterMedaille(typeMedaille : String) : void&#xa;+ getMedailles() : Map&lt;String, Integer&gt;&#xa;+ toString() : String&#xa;&#xa;&#xa;" style="text;align=left;verticalAlign=top;spacingLeft=4;spacingRight=4;overflow=hidden;rotatable=0;points=[[0,0.5],[1,0.5]];portConstraint=eastwest;" vertex="1" parent="0BSIf9uBEXcBJpG53O3L-17">
          <mxGeometry y="88" width="297" height="102" as="geometry" />
        </mxCell>
        <mxCell id="0BSIf9uBEXcBJpG53O3L-21" value="SceneListeEpreuve" style="swimlane;fontStyle=2;align=center;verticalAlign=top;childLayout=stackLayout;horizontal=1;startSize=26;horizontalStack=0;resizeParent=1;resizeLast=0;collapsible=1;marginBottom=0;rounded=0;shadow=0;strokeWidth=1;" vertex="1" parent="WIyWlLk6GJQsqaUBKTNV-1">
          <mxGeometry x="2420" y="535" width="297" height="190" as="geometry">
            <mxRectangle x="230" y="140" width="160" height="26" as="alternateBounds" />
          </mxGeometry>
        </mxCell>
        <mxCell id="0BSIf9uBEXcBJpG53O3L-22" value="- nomPays : String&#xa;- scoreTotal : int&#xa;- medailles : Map&lt;String, Integer&gt;" style="text;align=left;verticalAlign=top;spacingLeft=4;spacingRight=4;overflow=hidden;rotatable=0;points=[[0,0.5],[1,0.5]];portConstraint=eastwest;" vertex="1" parent="0BSIf9uBEXcBJpG53O3L-21">
          <mxGeometry y="26" width="297" height="54" as="geometry" />
        </mxCell>
        <mxCell id="0BSIf9uBEXcBJpG53O3L-23" value="" style="line;html=1;strokeWidth=1;align=left;verticalAlign=middle;spacingTop=-1;spacingLeft=3;spacingRight=3;rotatable=0;labelPosition=right;points=[];portConstraint=eastwest;" vertex="1" parent="0BSIf9uBEXcBJpG53O3L-21">
          <mxGeometry y="80" width="297" height="8" as="geometry" />
        </mxCell>
        <mxCell id="0BSIf9uBEXcBJpG53O3L-24" value="+ Pays(nom : String)&#xa;+ getScoreTotal() : int&#xa;+ getNomPays() : String&#xa;+ ajouterMedaille(typeMedaille : String) : void&#xa;+ getMedailles() : Map&lt;String, Integer&gt;&#xa;+ toString() : String&#xa;&#xa;&#xa;" style="text;align=left;verticalAlign=top;spacingLeft=4;spacingRight=4;overflow=hidden;rotatable=0;points=[[0,0.5],[1,0.5]];portConstraint=eastwest;" vertex="1" parent="0BSIf9uBEXcBJpG53O3L-21">
          <mxGeometry y="88" width="297" height="102" as="geometry" />
        </mxCell>
        <mxCell id="0BSIf9uBEXcBJpG53O3L-25" value="" style="endArrow=classic;html=1;rounded=0;exitX=-0.006;exitY=0.34;exitDx=0;exitDy=0;exitPerimeter=0;" edge="1" parent="WIyWlLk6GJQsqaUBKTNV-1" source="0BSIf9uBEXcBJpG53O3L-24">
          <mxGeometry width="50" height="50" relative="1" as="geometry">
            <mxPoint x="2409" y="1041" as="sourcePoint" />
            <mxPoint x="2190" y="770" as="targetPoint" />
          </mxGeometry>
        </mxCell>
        <mxCell id="0BSIf9uBEXcBJpG53O3L-26" value="" style="endArrow=classic;html=1;rounded=0;exitX=0;exitY=0.5;exitDx=0;exitDy=0;entryX=1;entryY=0;entryDx=0;entryDy=0;" edge="1" parent="WIyWlLk6GJQsqaUBKTNV-1" target="0BSIf9uBEXcBJpG53O3L-0">
          <mxGeometry width="50" height="50" relative="1" as="geometry">
            <mxPoint x="2440" y="368" as="sourcePoint" />
            <mxPoint x="2210" y="550" as="targetPoint" />
          </mxGeometry>
        </mxCell>
        <mxCell id="0BSIf9uBEXcBJpG53O3L-27" value="" style="endArrow=classic;html=1;rounded=0;exitX=0.486;exitY=1.029;exitDx=0;exitDy=0;entryX=1;entryY=0;entryDx=0;entryDy=0;exitPerimeter=0;" edge="1" parent="WIyWlLk6GJQsqaUBKTNV-1" source="0BSIf9uBEXcBJpG53O3L-16">
          <mxGeometry width="50" height="50" relative="1" as="geometry">
            <mxPoint x="2318" y="369" as="sourcePoint" />
            <mxPoint x="2068" y="551" as="targetPoint" />
          </mxGeometry>
        </mxCell>
        <mxCell id="0BSIf9uBEXcBJpG53O3L-28" value="" style="endArrow=classic;html=1;rounded=0;exitX=1;exitY=0.5;exitDx=0;exitDy=0;entryX=-0.007;entryY=0.172;entryDx=0;entryDy=0;entryPerimeter=0;" edge="1" parent="WIyWlLk6GJQsqaUBKTNV-1" source="0BSIf9uBEXcBJpG53O3L-6" target="0BSIf9uBEXcBJpG53O3L-2">
          <mxGeometry width="50" height="50" relative="1" as="geometry">
            <mxPoint x="1750" y="560" as="sourcePoint" />
            <mxPoint x="1851.5" y="710" as="targetPoint" />
          </mxGeometry>
        </mxCell>
        <mxCell id="0BSIf9uBEXcBJpG53O3L-29" value="" style="endArrow=classic;html=1;rounded=0;exitX=0.953;exitY=1.029;exitDx=0;exitDy=0;entryX=0.394;entryY=-0.002;entryDx=0;entryDy=0;exitPerimeter=0;entryPerimeter=0;" edge="1" parent="WIyWlLk6GJQsqaUBKTNV-1" source="0BSIf9uBEXcBJpG53O3L-12" target="0BSIf9uBEXcBJpG53O3L-0">
          <mxGeometry width="50" height="50" relative="1" as="geometry">
            <mxPoint x="1896" y="410" as="sourcePoint" />
            <mxPoint x="1998" y="560" as="targetPoint" />
          </mxGeometry>
        </mxCell>
        <mxCell id="0BSIf9uBEXcBJpG53O3L-30" value="" style="endArrow=classic;html=1;rounded=0;exitX=0.998;exitY=0.233;exitDx=0;exitDy=0;entryX=-0.012;entryY=0.946;entryDx=0;entryDy=0;entryPerimeter=0;exitPerimeter=0;" edge="1" parent="WIyWlLk6GJQsqaUBKTNV-1" source="1lEUYHELuhA4MckAKtJ3-34" target="0BSIf9uBEXcBJpG53O3L-2">
          <mxGeometry width="50" height="50" relative="1" as="geometry">
            <mxPoint x="1560" y="1032" as="sourcePoint" />
            <mxPoint x="1761" y="1130" as="targetPoint" />
          </mxGeometry>
        </mxCell>
      </root>
    </mxGraphModel>
  </diagram>
</mxfile>
